<?xml version="1.0" encoding="utf-8" standalone="no"?>
<!DOCTYPE svg PUBLIC "-//W3C//DTD SVG 1.1//EN"
  "http://www.w3.org/Graphics/SVG/1.1/DTD/svg11.dtd">
<svg xmlns:xlink="http://www.w3.org/1999/xlink" width="1152pt" height="648pt" viewBox="0 0 1152 648" xmlns="http://www.w3.org/2000/svg" version="1.1">
 <metadata>
  <rdf:RDF xmlns:dc="http://purl.org/dc/elements/1.1/" xmlns:cc="http://creativecommons.org/ns#" xmlns:rdf="http://www.w3.org/1999/02/22-rdf-syntax-ns#">
   <cc:Work>
    <dc:type rdf:resource="http://purl.org/dc/dcmitype/StillImage"/>
    <dc:format>image/svg+xml</dc:format>
    <dc:creator>
     <cc:Agent>
      <dc:title>Matplotlib v3.9.4, https://matplotlib.org/</dc:title>
     </cc:Agent>
    </dc:creator>
   </cc:Work>
  </rdf:RDF>
 </metadata>
 <defs>
  <style type="text/css">*{stroke-linejoin: round; stroke-linecap: butt}</style>
 </defs>
 <g id="figure_1">
  <g id="patch_1">
   <path d="M 0 648
L 1152 648
L 1152 0
L 0 0
z
" style="fill: #ffffff"/>
  </g>
  <g id="axes_1">
   <g id="line2d_1">
    <path d="M 46.8 115.2
L 1105.2 115.2
" clip-path="url(#p7f67505ef3)" style="fill: none; stroke: #cfd8e2; stroke-linecap: square"/>
   </g>
   <g id="patch_2">
    <path d="M 93.24 286.2
L 230.76 286.2
Q 239.4 286.2 239.4 277.56
L 239.4 183.24
Q 239.4 174.6 230.76 174.6
L 93.24 174.6
Q 84.6 174.6 84.6 183.24
L 84.6 277.56
Q 84.6 286.2 93.24 286.2
z
" clip-path="url(#p7f67505ef3)" style="fill: #e8f2fc; stroke: #2469a0; stroke-width: 1.5; stroke-linejoin: miter"/>
   </g>
   <g id="patch_3">
    <path d="M 86.04 293.4
L 223.56 293.4
Q 232.2 293.4 232.2 284.76
L 232.2 190.44
Q 232.2 181.8 223.56 181.8
L 86.04 181.8
Q 77.4 181.8 77.4 190.44
L 77.4 284.76
Q 77.4 293.4 86.04 293.4
z
" clip-path="url(#p7f67505ef3)" style="fill: #e8f2fc; stroke: #2469a0; stroke-width: 1.5; stroke-linejoin: miter"/>
   </g>
   <g id="patch_4">
    <path d="M 78.84 300.6
L 216.36 300.6
Q 225 300.6 225 291.96
L 225 197.64
Q 225 189 216.36 189
L 78.84 189
Q 70.2 189 70.2 197.64
L 70.2 291.96
Q 70.2 300.6 78.84 300.6
z
" clip-path="url(#p7f67505ef3)" style="fill: #e8f2fc; stroke: #2469a0; stroke-width: 1.5; stroke-linejoin: miter"/>
   </g>
   <g id="patch_5">
    <path d="M 316.44 286.2
L 453.96 286.2
Q 462.6 286.2 462.6 277.56
L 462.6 183.24
Q 462.6 174.6 453.96 174.6
L 316.44 174.6
Q 307.8 174.6 307.8 183.24
L 307.8 277.56
Q 307.8 286.2 316.44 286.2
z
" clip-path="url(#p7f67505ef3)" style="fill: #e8f2fc; stroke: #2469a0; stroke-width: 1.5; stroke-linejoin: miter"/>
   </g>
   <g id="patch_6">
    <path d="M 309.24 293.4
L 446.76 293.4
Q 455.4 293.4 455.4 284.76
L 455.4 190.44
Q 455.4 181.8 446.76 181.8
L 309.24 181.8
Q 300.6 181.8 300.6 190.44
L 300.6 284.76
Q 300.6 293.4 309.24 293.4
z
" clip-path="url(#p7f67505ef3)" style="fill: #e8f2fc; stroke: #2469a0; stroke-width: 1.5; stroke-linejoin: miter"/>
   </g>
   <g id="patch_7">
    <path d="M 302.04 300.6
L 439.56 300.6
Q 448.2 300.6 448.2 291.96
L 448.2 197.64
Q 448.2 189 439.56 189
L 302.04 189
Q 293.4 189 293.4 197.64
L 293.4 291.96
Q 293.4 300.6 302.04 300.6
z
" clip-path="url(#p7f67505ef3)" style="fill: #e8f2fc; stroke: #2469a0; stroke-width: 1.5; stroke-linejoin: miter"/>
   </g>
   <g id="patch_8">
    <path d="M 78.84 408.6
L 439.56 408.6
Q 448.2 408.6 448.2 399.96
L 448.2 356.04
Q 448.2 347.4 439.56 347.4
L 78.84 347.4
Q 70.2 347.4 70.2 356.04
L 70.2 399.96
Q 70.2 408.6 78.84 408.6
z
" clip-path="url(#p7f67505ef3)" style="fill: #eaf6ef; stroke: #287a57; stroke-width: 1.5; stroke-linejoin: miter"/>
   </g>
   <g id="patch_9">
    <path d="M 546.84 343.8
L 756.36 343.8
Q 765 343.8 765 335.16
L 765 197.64
Q 765 189 756.36 189
L 546.84 189
Q 538.2 189 538.2 197.64
L 538.2 335.16
Q 538.2 343.8 546.84 343.8
z
" clip-path="url(#p7f67505ef3)" style="fill: #fff0df; stroke: #b85b13; stroke-width: 1.5; stroke-linejoin: miter"/>
   </g>
   <g id="patch_10">
    <path d="M 838.44 343.8
L 1076.76 343.8
Q 1085.4 343.8 1085.4 335.16
L 1085.4 197.64
Q 1085.4 189 1076.76 189
L 838.44 189
Q 829.8 189 829.8 197.64
L 829.8 335.16
Q 829.8 343.8 838.44 343.8
z
" clip-path="url(#p7f67505ef3)" style="fill: #eaf6ef; stroke: #287a57; stroke-width: 1.5; stroke-linejoin: miter"/>
   </g>
   <g id="patch_11">
    <path d="M 68.04 563.4
L 558.36 563.4
Q 567 563.4 567 554.76
L 567 460.44
Q 567 451.8 558.36 451.8
L 68.04 451.8
Q 59.4 451.8 59.4 460.44
L 59.4 554.76
Q 59.4 563.4 68.04 563.4
z
" clip-path="url(#p7f67505ef3)" style="fill: #f2f5f8; stroke: #cfd8e2; stroke-width: 1.5; stroke-linejoin: miter"/>
   </g>
   <g id="patch_12">
    <path d="M 593.64 563.4
L 1083.96 563.4
Q 1092.6 563.4 1092.6 554.76
L 1092.6 460.44
Q 1092.6 451.8 1083.96 451.8
L 593.64 451.8
Q 585 451.8 585 460.44
L 585 554.76
Q 585 563.4 593.64 563.4
z
" clip-path="url(#p7f67505ef3)" style="fill: #f2f5f8; stroke: #cfd8e2; stroke-width: 1.5; stroke-linejoin: miter"/>
   </g>
   <g id="patch_13">
    <path d="M 473.598413 244.8
Q 502.200107 244.8 528.789341 244.8
" clip-path="url(#p7f67505ef3)" style="fill: none; stroke: #516276; stroke-width: 1.8; stroke-linecap: round"/>
    <path d="M 521.989341 241.4
L 528.789341 244.8
L 521.989341 248.2
z
" clip-path="url(#p7f67505ef3)" style="fill: #516276; stroke: #516276; stroke-width: 1.8; stroke-linecap: round"/>
   </g>
   <g id="patch_14">
    <path d="M 451.609607 376.810291
Q 491.400779 347.399424 529.573577 319.184747
" clip-path="url(#p7f67505ef3)" style="fill: none; stroke: #516276; stroke-width: 1.8; stroke-linecap: round"/>
    <path d="M 522.08425 320.492408
L 529.573577 319.184747
L 526.126109 325.960805
z
" clip-path="url(#p7f67505ef3)" style="fill: #516276; stroke: #516276; stroke-width: 1.8; stroke-linecap: round"/>
   </g>
   <g id="patch_15">
    <path d="M 772.40061 266.4
Q 797.398974 266.4 820.384877 266.4
" clip-path="url(#p7f67505ef3)" style="fill: none; stroke: #516276; stroke-width: 1.8; stroke-linecap: round"/>
    <path d="M 813.584877 263
L 820.384877 266.4
L 813.584877 269.8
z
" clip-path="url(#p7f67505ef3)" style="fill: #516276; stroke: #516276; stroke-width: 1.8; stroke-linecap: round"/>
   </g>
   <g id="text_1">
    <text style="fill: #172b43; font: 700 27px 'DejaVu Sans'; text-anchor: start" x="46.8" y="54.144844" transform="rotate(-0 46.8 54.144844)">What changed between these CTs?</text>
   </g>
   <g id="text_2">
    <text style="fill: #516276; font: 15px 'DejaVu Sans'; text-anchor: start" x="46.8" y="90.539062" transform="rotate(-0 46.8 90.539062)">A CheXTemporal-inspired task: compare examinations, not just detect disease.</text>
   </g>
   <g id="text_3">
    <text style="fill: #516276; font: 10px 'DejaVu Sans'; text-anchor: start" x="46.8" y="630.482188" transform="rotate(-0 46.8 630.482188)">3dCT  |  Finding-specific longitudinal progression</text>
   </g>
   <g id="text_4">
    <text style="fill: #516276; font: 11px 'DejaVu Sans'; text-anchor: end" x="1105.2" y="630.875312" transform="rotate(-0 1105.2 630.875312)">01</text>
   </g>
   <g id="text_5">
    <text style="fill: #172b43; font: 700 17px 'DejaVu Sans'; text-anchor: middle" x="147.6" y="249.490938" transform="rotate(-0 147.6 249.490938)">PRIOR CT</text>
   </g>
   <g id="text_6">
    <text style="fill: #172b43; font: 700 17px 'DejaVu Sans'; text-anchor: middle" x="370.8" y="249.490938" transform="rotate(-0 370.8 249.490938)">CURRENT CT</text>
   </g>
   <g id="text_7">
    <text style="fill: #172b43; font: 16px 'DejaVu Sans'; text-anchor: middle" x="259.2" y="382.415" transform="rotate(-0 259.2 382.415)">Finding query: "Pleural effusion"</text>
   </g>
   <g id="text_8">
    <text style="fill: #172b43; font: 19px 'DejaVu Sans'" transform="translate(553.919219 259.922113)">Compare both scans</text>
    <text style="fill: #172b43; font: 19px 'DejaVu Sans'" transform="translate(582.44 283.363512)">for this finding</text>
   </g>
   <g id="text_9">
    <text style="fill: #172b43; font: 19px 'DejaVu Sans'" transform="translate(901.66875 248.201414)">WORSENED</text>
    <text style="fill: #172b43; font: 19px 'DejaVu Sans'" transform="translate(922.190234 271.642813)">STABLE</text>
    <text style="fill: #172b43; font: 19px 'DejaVu Sans'" transform="translate(907.143125 295.084211)">IMPROVED</text>
   </g>
   <g id="text_10">
    <text style="fill: #2469a0; font: 700 12px 'DejaVu Sans'; text-anchor: start" x="72" y="158.11125" transform="rotate(-0 72 158.11125)">INPUT</text>
   </g>
   <g id="text_11">
    <text style="fill: #b85b13; font: 700 12px 'DejaVu Sans'; text-anchor: start" x="540" y="158.11125" transform="rotate(-0 540 158.11125)">LONGITUDINAL REASONING</text>
   </g>
   <g id="text_12">
    <text style="fill: #287a57; font: 700 12px 'DejaVu Sans'; text-anchor: start" x="831.6" y="158.11125" transform="rotate(-0 831.6 158.11125)">DIRECTION</text>
   </g>
   <g id="text_13">
    <text style="fill: #172b43; font: 16px 'DejaVu Sans'" transform="translate(91.68625 502.144937)">CheXTemporal: 5-class progression + spatial grounding</text>
    <text style="fill: #172b43; font: 16px 'DejaVu Sans'" transform="translate(144.4975 521.885063)">New / worse / stable / improved / resolved</text>
   </g>
   <g id="text_14">
    <text style="fill: #172b43; font: 16px 'DejaVu Sans'" transform="translate(687.4075 502.144937)">Current CT scope: 3-class progression</text>
    <text style="fill: #172b43; font: 16px 'DejaVu Sans'" transform="translate(640.0175 521.885063)">New + worse merge; improved + resolved merge</text>
   </g>
   <g id="text_15">
    <text style="fill: #516276; font: 11px 'DejaVu Sans'; text-anchor: start" x="61.2" y="595.595312" transform="rotate(-0 61.2 595.595312)">Spatial correspondence and localization remain future work. CT stacks shown schematically, not patient scans.</text>
   </g>
  </g>
 </g>
 <defs>
  <clipPath id="p7f67505ef3">
   <rect x="0" y="0" width="1152" height="648"/>
  </clipPath>
 </defs>
</svg>
